<?xml version="1.0" encoding="utf-8"?>
<!-- Generator: Adobe Illustrator 21.0.0, SVG Export Plug-In . SVG Version: 6.00 Build 0)  -->
<svg version="1.1"
	 id="svg2" inkscape:export-filename="/home/pawel/logo.svg.png" inkscape:export-xdpi="123.59" inkscape:export-ydpi="123.59" inkscape:version="0.91 r13725" sodipodi:docname="JuliaDiffEq_icon.svg" xmlns:cc="http://creativecommons.org/ns#" xmlns:dc="http://purl.org/dc/elements/1.1/" xmlns:inkscape="http://www.inkscape.org/namespaces/inkscape" xmlns:rdf="http://www.w3.org/1999/02/22-rdf-syntax-ns#" xmlns:sodipodi="http://sodipodi.sourceforge.net/DTD/sodipodi-0.dtd" xmlns:svg="http://www.w3.org/2000/svg"
	 xmlns="http://www.w3.org/2000/svg" xmlns:xlink="http://www.w3.org/1999/xlink" x="0px" y="0px" viewBox="0 0 231.8 231.8"
	 style="enable-background:new 0 0 231.8 231.8;" xml:space="preserve">
<style type="text/css">
	.st0{fill:#6BAB5B;stroke:#3B972F;stroke-width:3;stroke-linecap:round;stroke-linejoin:round;}
	.st1{fill:#D66661;stroke:#C93D39;stroke-width:3;stroke-linecap:round;stroke-linejoin:round;}
	.st2{fill:#AA7DC0;stroke:#945BB0;stroke-width:4;stroke-linecap:round;stroke-linejoin:round;}
</style>
<sodipodi:namedview  bordercolor="#666666" borderopacity="1.0" fit-margin-bottom="0" fit-margin-left="0" fit-margin-right="0" fit-margin-top="0" id="base" inkscape:current-layer="g3365" inkscape:cx="42.427122" inkscape:cy="-108.60256" inkscape:document-units="px" inkscape:pageopacity="0.0" inkscape:pageshadow="2" inkscape:window-height="1009" inkscape:window-maximized="0" inkscape:window-width="960" inkscape:window-x="0" inkscape:window-y="34" inkscape:zoom="0.5" pagecolor="#ffffff" showgrid="false">
	</sodipodi:namedview>
<g id="layer1" transform="translate(-177.45675,-547.25472)" inkscape:groupmode="layer" inkscape:label="Layer 1">
	<g id="g3363" transform="matrix(1.25,0,0,-1.25,-32.675374,1082.4742)" inkscape:label="test2">
		<g id="g3365">
			<path id="path4263" inkscape:connector-curvature="0" class="st0" d="M300.8,249c10.8,4.7,22.6,9.1,31.2,17.5
				c7.7,7.6,12.7,17.9,14.1,28.6c2,15.7-3.5,31.9-13.3,44.3c-9.8,12.4-23.8,21.2-38.8,26.2s-31,6.6-46.8,6.3
				c-4.2-0.1-8.5-0.3-12.7,0.7c-4.1,1-8.1,3.5-9.8,7.4c-1.5,3.4-1,7.3,0,10.8c4.3,14.9,19.1,26.1,34.5,26.1
				c11.6,0,22.7-5.7,31.5-13.3c8.8-7.6,15.7-17.1,22.8-26.3c9.2-12,18.9-23.7,26.3-36.9c7.4-13.2,12.4-28.2,11.3-43.3
				c-0.8-12.1-6-24.3-15.2-32.4C325.6,255.5,314.3,251.5,300.8,249"/>
			<path id="path4259" inkscape:connector-curvature="0" class="st1" d="M298.2,405c-7.2,5.7-15.1,10.8-23.8,13.9
				c-14.8,5.3-31.4,2-43.4-8.1c-10.8-9.1-17.4-22.5-20.3-36.4c-5.5-27,2.5-55.4,16.2-79.3c2.5-4.4,5.2-8.7,6.7-13.5
				s1.5-10.3-1.2-14.6c-2.5-4.1-7.2-6.4-11.9-7.3c-9.4-1.7-19.3,2.1-26.1,8.8c-6.8,6.7-10.8,15.9-12.2,25.3
				c-1.5,9.4-0.6,19.1,1.1,28.5c3.2,17.5,9.7,34.3,17.1,50.4c6.7,14.6,14.3,29.5,26.3,40.5c10.4,9.6,24.2,14.3,38.3,12.3
				C278.5,423.5,289.4,415,298.2,405"/>
			<path id="path4255" inkscape:connector-curvature="0" class="st2" d="M337.6,318c-0.7,1.5-1.5,3-2.4,4.5c-3.3,5.2-8.9,10-15,8.8
				c-5.5-1.1-8.7-6.6-11.3-11.5c-7.9-14.7-16.6-29.1-28.1-41.2c-11.5-12.1-25.9-21.8-42.2-25.3c-15.7-3.4-32.6,0.4-45.1,10.6
				c-17.9,14.6-20.7,39-15.5,60.2c-1.4-2.4-2.9-5.2-3.8-7.9c-1.1-3.4-1.9-6.9-2.3-10.4c-0.8-7.1-0.2-14.3,1.8-21.2
				c4.1-14,14.3-26.3,27.2-33c23.8-12.4,52.1-4.5,76.9-0.4c7.3,1.2,14.6,2.4,21.7,4.4c13.7,3.8,27.2,10.7,35,22.5
				C342.3,289.7,343.4,305.4,337.6,318z"/>
		</g>
		<g id="g4325">
		</g>
		<g id="g4529">
		</g>
	</g>
</g>
</svg>
