<?xml version="1.0" encoding="utf-8"?>
<!-- Generator: Adobe Illustrator 16.0.0, SVG Export Plug-In . SVG Version: 6.00 Build 0)  -->
<!DOCTYPE svg PUBLIC "-//W3C//DTD SVG 1.1//EN" "http://www.w3.org/Graphics/SVG/1.1/DTD/svg11.dtd">
<svg version="1.1"
	 id="svg2" xmlns:cc="http://creativecommons.org/ns#" xmlns:dc="http://purl.org/dc/elements/1.1/" xmlns:inkscape="http://www.inkscape.org/namespaces/inkscape" xmlns:rdf="http://www.w3.org/1999/02/22-rdf-syntax-ns#" xmlns:sodipodi="http://sodipodi.sourceforge.net/DTD/sodipodi-0.dtd" xmlns:svg="http://www.w3.org/2000/svg" inkscape:export-filename="/home/pawel/logo.svg.png" inkscape:export-xdpi="123.59" inkscape:export-ydpi="123.59" inkscape:version="0.91 r13725" sodipodi:docname="JuliaDiffEq_icon.svg"
	 xmlns="http://www.w3.org/2000/svg" xmlns:xlink="http://www.w3.org/1999/xlink" x="0px" y="0px" width="240px" height="234px"
	 viewBox="0 0 240 234" enable-background="new 0 0 240 234" xml:space="preserve">
<sodipodi:namedview  bordercolor="#666666" borderopacity="1.0" fit-margin-left="0" fit-margin-top="0" id="base" inkscape:cx="42.427122" inkscape:cy="-108.60256" inkscape:zoom="0.5" pagecolor="#ffffff" showgrid="false" fit-margin-bottom="0" fit-margin-right="0" inkscape:document-units="px" inkscape:pageopacity="0.0" inkscape:pageshadow="2" inkscape:current-layer="g3365" inkscape:window-height="1009" inkscape:window-maximized="0" inkscape:window-width="960" inkscape:window-x="0" inkscape:window-y="34">
	</sodipodi:namedview>
<g id="layer1" transform="translate(-177.45675,-547.25472)" inkscape:groupmode="layer" inkscape:label="Layer 1">
	<g id="g3363" transform="matrix(1.25,0,0,-1.25,-32.675374,1082.4742)" inkscape:label="test2">
		<g id="g3365">
			
				<path id="path4263" inkscape:connector-curvature="0" fill="#6BAB5B" stroke="#3B972F" stroke-width="3" stroke-linecap="round" stroke-linejoin="round" d="
				M304.373,247.299c10.903,4.745,22.816,9.187,31.497,17.666c7.773,7.673,12.82,18.07,14.234,28.871
				c2.02,15.851-3.534,32.203-13.427,44.721c-9.894,12.518-24.027,21.402-39.169,26.449c-15.142,5.048-31.294,6.662-47.244,6.36
				c-4.24-0.101-8.58-0.303-12.82,0.707c-4.139,1.009-8.177,3.533-9.892,7.47c-1.514,3.432-1.009,7.369,0,10.902
				c4.341,15.041,19.281,26.348,34.827,26.348c11.71,0,22.915-5.754,31.799-13.426s15.848-17.262,23.016-26.55
				c9.288-12.114,19.08-23.925,26.549-37.25c7.47-13.326,12.518-28.468,11.409-43.711c-0.809-12.215-6.058-24.53-15.345-32.707
				C329.409,253.862,318.001,249.823,304.373,247.299"/>
			
				<path id="path4259" inkscape:connector-curvature="0" fill="#D66661" stroke="#C93D39" stroke-width="3" stroke-linecap="round" stroke-linejoin="round" d="
				M301.749,404.78c-7.269,5.754-15.244,10.903-24.027,14.032c-14.941,5.35-31.698,2.019-43.812-8.177
				c-10.903-9.186-17.565-22.713-20.493-36.745c-5.552-27.256,2.523-55.926,16.354-80.054c2.524-4.441,5.249-8.781,6.764-13.628
				c1.514-4.845,1.514-10.397-1.211-14.737c-2.524-4.138-7.268-6.459-12.013-7.37c-9.489-1.716-19.483,2.12-26.348,8.884
				c-6.863,6.763-10.902,16.05-12.316,25.539c-1.514,9.49-0.606,19.282,1.111,28.771c3.23,17.666,9.792,34.625,17.263,50.878
				c6.764,14.739,14.436,29.78,26.55,40.884c10.498,9.691,24.43,14.436,38.664,12.417
				C281.862,423.456,292.865,414.875,301.749,404.78"/>
			
				<path id="path4255" inkscape:connector-curvature="0" fill="#AA7DC0" stroke="#945BB0" stroke-width="4" stroke-linecap="round" stroke-linejoin="round" d="
				M341.523,316.955c-0.706,1.514-1.514,3.028-2.423,4.542c-3.331,5.248-8.984,10.095-15.142,8.884
				c-5.552-1.11-8.783-6.663-11.407-11.609c-7.975-14.839-16.757-29.377-28.366-41.591c-11.609-12.215-26.147-22.007-42.602-25.541
				c-15.848-3.431-32.909,0.405-45.528,10.702c-18.07,14.738-20.895,39.37-15.647,60.771c-1.412-2.423-2.928-5.249-3.836-7.975
				c-1.111-3.432-1.918-6.966-2.322-10.499c-0.808-7.166-0.202-14.435,1.817-21.401c4.139-14.133,14.436-26.549,27.458-33.313
				c24.027-12.516,52.595-4.541,77.63-0.404c7.37,1.212,14.738,2.423,21.905,4.441c13.83,3.838,27.459,10.802,35.332,22.714
				C346.267,288.386,347.378,304.235,341.523,316.955z"/>
		</g>
		<g id="g4325">
		</g>
		<g id="g4529">
		</g>
	</g>
</g>
</svg>
